# xmcd
#
# Track frame offsets:
#	150
#	18436
#	35075
#	47688
#	65616
#	86354
#	100837
#	116132
#	134756
#	151047
#	167651
#
# Disc length: 2476 seconds
#
# Revision: 1
# Processed by: cddbd v1.5.2PL0 Copyright (c) Steve Scherf et al.
# Submitted via: audiograbber 1.82.01
#
DISCID=8e09aa0b
DTITLE=Χάρης Κατσιμίχας - ΜΕΧΡΙ ΝΑ ΠΑΡΕΙΣ ΠΑΓΩΤΟ ΣΕ ΒΡΙΣΚΕΙ Ο ΧΕΙΜΩΝΑΣ
DYEAR=2007
DGENRE=
TTITLE0=Δε μας ανήκει τίποτα
TTITLE1=Λαβύρινθος
TTITLE2=Κάπου σε ξέρω
TTITLE3=Μέχρι να πάρεις παγωτό
TTITLE4=Λευκό πουλί
TTITLE5=Ό, τι κι αν πω θα λείπει κάτι
TTITLE6=Ασ' το να σε χαλάσει
TTITLE7=Ποτέ δεν τραγούδησα για τον πατέρα μου
TTITLE8=Σύνδρομο της Στοκχόλμης
TTITLE9=Μια τρελή ζαριά
TTITLE10=Παγίδα
EXTD=
EXTT0=
EXTT1=
EXTT2=
EXTT3=
EXTT4=
EXTT5=
EXTT6=
EXTT7=
EXTT8=
EXTT9=
EXTT10=
PLAYORDER=
